<svg xmlns="http://www.w3.org/2000/svg" width="400" height="299.9"><path d="M194.5 37.7c-.7.3-1.4 1-2.7 3.3-.6 1-.8 1-2.8 1.4l-2.7.7c-1.3.4-2.2.4-5 .2-2.6-.2-3.3 0-5 2-3 3.6-4 7-2.9 10 .6 1.6.4 2-1.5 2.6l-2.1.9-1.2.5a52.4 52.4 0 0 1-8.7 3.8 137.4 137.4 0 0 0-9.4 3.8c-.4.2-2 1.4-3.6 2.8a432.8 432.8 0 0 1-10.7 9.2A1818.1 1818.1 0 0 0 124 89.2c-2.2 1.9-2.1 1.4-1.8 11.4a985.2 985.2 0 0 1 .4 24.2l.2 9a476.6 476.6 0 0 0 .8 28.7c0 2.8 0 10 .2 16l.3 10.9-1 1.2a60.3 60.3 0 0 1-3.3 3.8 260 260 0 0 0-8.5 10 46.9 46.9 0 0 0-4.7 5.6 171.6 171.6 0 0 0-6.5 7.6 294.4 294.4 0 0 0-8 9.6c0 .3 4.6 3.8 14.2 11l6.2 4.7a1492.6 1492.6 0 0 0 20.9 15.4c.2-.1.5 0 .7.1.2.2.4.2.7-.1.6-.5 2.6-3 2.6-3.1a79 79 0 0 1 5.9-7.9c.3-.3.6-.7.6-.9l.3-.4c.2 0 .4-.3.4-.4 0-.2 0-.4.3-.4l.3-.4s1.3-2 3-4c7.8-10.2 9.6-12.7 10.5-14 .9-1.4 2.7-3.5 3-3.3 0 .2 1.5 31.3 1.5 34.3 0 1.6 0 1.8-.5 2-1 .7-2 1.8-2.1 2.2-.1.4 0 .4 47.9.4 42 0 48 0 47.9-.3l-1.7-1.5a112 112 0 0 1-2.8-2.4l-1.4-1.1 3.2-.8c2.6-.7 3.3-1 4.5-1.8l2-1.2c.6-.3 7.5-2 12.9-3l1.7-.4.5.6c.7.6.7.6 4.8-.1a45.5 45.5 0 0 0 10.5-2.8c1 0 .7-1.3-1.5-5.5l-1-2.2a8 8 0 0 0-.9-1.4l-.1-.4s0-.3-.3-.6a42.3 42.3 0 0 1-3-5.5l-5.3-10.4c-2.6-5.3-2.8-5.8-1.5-5.6l.9.2 10.3 3.6c2.8 1 3.7 1 3 .2-.2-.3-.2-.3 0-.3.9 0 .9-.6 0-1.6l-1.1-1c-.2 0-.7-.4-1.3-.9-1.2-1.2-1.6-1.4-2.5-1.4-.8 0-1.4-.3-1.4-.8 0-.7-.6-1.5-1.3-1.8a6 6 0 0 1-1.3-1.1c-.7-.7-.8-.8-1.2-.5-.6.4-2-.8-2-1.7 0-.8-.8-1.6-1.7-1.6-.8 0-2.5-1.3-2.5-1.9 0-.4-.7-1-1.2-1-.4 0-.5 0-.4-.5.2-.6-1.4-2.1-2-2-.6.2-1.9-1-1.9-1.5 0-.4-1.3-1.6-2.2-2-.8-.3-1.2-1.2-1.2-2.7l-.1-.8-.2-1.4a5804.3 5804.3 0 0 1-.7-11.3 997.2 997.2 0 0 1-2.4-41.8l-.1-1.3-.2-3.2a102 102 0 0 1-.4-7.4v-1.2l-.2-2 .1-1.3c.2-.3.3-1.3.4-2.2a30.4 30.4 0 0 1 .3-4.3l.2-1.5v-1c0-.4 0-.7.2-.8v-.6c0-.2 0-.9.3-1.5.2-.7.3-1.4.2-1.6l.1-1.1.4-3.3c.1-1.4.3-3 .5-3.7 1-5.8 1-10.7-.3-10.9h-.7c-1.3-.2-.6-3.5 1-5.4.7-.7.8-1.4.9-7.5.2-8 .5-10.4 2.1-13.7.6-1 .8-3.8.3-4l-.2-.5c0-1-1.2-3.4-2.5-4.8-2.2-2.4-4.4-7.3-4.1-9a7 7 0 0 0-.2-2.2 42 42 0 0 1-.5-2.2c0-.4-.3-1.1-.6-1.6-.5-.7-.8-1-2.7-2.4l-1-.7h-30.3c-22.8 0-30.5 0-31.1.2m24.6 45.8.1.4c.2 0 .2.2.2.3v.5l.3 4c-.1 3-.3 3.3-1.3 3-.6-.2-.7-.3-.7-.8l-.2-2c-.1-.8 0-2 .2-3.3l.4-2.4c0-.8.4-1 .8-.5.2.3.3.6.2.8m-38.4 0 .5 1.7c.3 1 .3 4.9 0 6.5-.2 1.1-1.2 1.6-1.8.8-.2-.5 0-8.7.2-9.4.4-.8.9-.7 1.1.3" fill-rule="evenodd"/></svg>