<?xml version="1.0" standalone="no"?>
<!DOCTYPE svg PUBLIC "-//W3C//DTD SVG 20010904//EN"
 "http://www.w3.org/TR/2001/REC-SVG-20010904/DTD/svg10.dtd">
<svg version="1.0" xmlns="http://www.w3.org/2000/svg"
 width="1890.000000pt" height="1417.000000pt" viewBox="0 0 1890.000000 1417.000000"
 preserveAspectRatio="xMidYMid meet">

<g transform="translate(0.000000,1417.000000) scale(0.100000,-0.100000)">
<path  d="M9859 12396 c-3 -4 -147 -9 -320 -12 -218 -5 -323 -10 -345 -19 -19
-8 -42 -31 -60 -60 -16 -26 -44 -64 -61 -85 -18 -20 -33 -42 -33 -48 0 -14
-55 -32 -96 -32 -18 0 -53 -6 -76 -14 -121 -40 -170 -46 -228 -31 -66 18 -135
19 -196 4 -33 -9 -52 -22 -76 -53 -18 -22 -46 -57 -64 -77 -18 -20 -47 -67
-64 -105 -28 -57 -34 -83 -38 -161 -4 -79 -1 -101 18 -153 22 -58 22 -61 5
-80 -10 -11 -38 -27 -64 -36 -63 -23 -226 -96 -346 -155 -55 -27 -108 -49
-117 -49 -9 0 -65 -20 -122 -45 -58 -25 -108 -45 -111 -45 -14 0 -244 -94
-280 -115 -22 -12 -51 -26 -64 -30 -29 -9 -88 -48 -121 -81 -14 -14 -79 -70
-145 -125 -146 -122 -243 -204 -354 -301 -46 -40 -112 -95 -145 -122 -34 -27
-92 -77 -131 -110 -70 -62 -178 -154 -328 -279 -44 -37 -86 -75 -92 -85 -25
-36 -41 -228 -25 -292 8 -31 13 -229 15 -646 1 -331 6 -608 11 -615 4 -8 7
-95 6 -194 -4 -319 25 -1360 38 -1385 7 -14 10 -46 6 -88 -3 -37 -6 -76 -7
-87 -3 -33 9 -747 17 -1072 l7 -302 -29 -28 c-16 -16 -69 -77 -119 -136 -49
-59 -115 -136 -145 -171 -30 -35 -102 -119 -159 -187 -57 -68 -131 -155 -164
-192 -33 -37 -83 -96 -111 -131 -28 -35 -112 -134 -186 -221 -74 -87 -149
-176 -166 -199 -18 -22 -50 -59 -72 -81 -39 -39 -151 -171 -320 -376 -41 -49
-42 -53 -26 -70 18 -20 172 -137 979 -739 626 -467 806 -603 873 -656 35 -27
61 -40 73 -37 11 3 26 0 34 -7 22 -18 28 -11 190 205 79 104 228 300 331 435
102 135 211 279 242 320 31 41 129 170 217 285 89 116 174 233 189 260 28 52
131 152 140 136 7 -10 24 -289 36 -581 16 -394 30 -673 40 -820 5 -80 10 -184
10 -232 l0 -87 -44 -30 c-44 -31 -86 -76 -86 -92 0 -5 990 -9 2250 -9 1796 0
2248 3 2244 13 -3 6 -39 39 -81 72 -94 75 -205 176 -199 182 2 2 72 22 156 43
139 36 160 45 244 98 l91 59 323 72 c178 39 333 71 346 71 13 0 31 -9 41 -20
10 -11 29 -20 43 -20 26 0 290 48 417 76 39 9 98 22 133 29 34 8 72 21 84 29
12 9 31 16 41 16 14 0 17 5 11 23 -7 22 -254 512 -494 977 -72 140 -154 301
-183 357 l-52 103 22 21 21 21 118 -40 c66 -22 211 -73 324 -112 264 -93 240
-87 240 -57 0 17 7 27 23 31 21 6 19 9 -28 53 -27 25 -76 68 -109 95 -53 45
-62 49 -95 43 -44 -7 -91 23 -91 59 0 21 -47 76 -65 76 -5 0 -24 16 -42 36
-27 30 -36 34 -47 25 -11 -9 -20 -9 -34 -2 -33 18 -82 81 -82 106 0 30 -41 60
-71 52 -27 -7 -114 65 -128 105 -6 18 -17 28 -30 28 -27 0 -53 28 -46 50 8 24
-50 72 -81 68 -28 -4 -104 62 -104 90 0 23 -51 70 -91 84 -15 5 -39 26 -51 46
-25 41 -27 55 -53 572 -8 173 -22 423 -30 555 -9 132 -24 404 -35 605 -11 201
-25 430 -30 510 -5 80 -14 235 -20 345 -10 202 -22 419 -41 708 -9 151 -8 175
26 485 20 180 40 352 45 382 5 30 14 107 20 170 6 63 16 142 22 175 5 33 18
152 28 265 20 227 19 230 -41 230 -33 0 -69 51 -69 98 0 34 49 134 84 172 31
33 36 73 42 390 3 146 10 288 15 315 28 146 39 187 72 265 51 119 55 158 22
245 -15 39 -33 89 -42 112 -9 25 -43 73 -82 115 -104 114 -209 343 -195 429 4
21 0 60 -9 90 -8 30 -18 76 -22 103 -8 58 -47 121 -87 142 -16 8 -47 31 -68
50 l-39 35 -1108 6 c-609 3 -1111 2 -1114 -1z m-1319 -2121 c6 -8 21 -47 31
-87 30 -112 24 -397 -10 -431 -11 -11 -88 12 -104 31 -20 25 -22 311 -2 397
21 93 54 128 85 90z m1813 -7 c35 -56 55 -300 34 -418 l-8 -46 -58 10 -58 9
-7 113 c-8 144 12 284 49 345 11 16 34 10 48 -13z"/>
</g>
</svg>
